<svg width="14" height="24" viewBox="0 0 14 24" fill="none" xmlns="http://www.w3.org/2000/svg">
<path d="M12.9993 0.0049936L9.887 0C6.39048 0 4.13087 2.31828 4.13087 5.90643V8.62969H1.00163C0.731229 8.62969 0.512259 8.84891 0.512259 9.11932V13.065C0.512259 13.3354 0.731478 13.5544 1.00163 13.5544H4.13087V23.5106C4.13087 23.781 4.34984 24 4.62025 24H8.70302C8.97342 24 9.19239 23.7808 9.19239 23.5106V13.5544H12.8512C13.1216 13.5544 13.3406 13.3354 13.3406 13.065L13.3421 9.11932C13.3421 8.98948 13.2904 8.86514 13.1988 8.77326C13.1071 8.68138 12.9823 8.62969 12.8525 8.62969H9.19239V6.32115C9.19239 5.21157 9.4568 4.64829 10.9022 4.64829L12.9988 4.64755C13.2689 4.64755 13.4879 4.42833 13.4879 4.15817V0.494367C13.4879 0.224462 13.2692 0.00549296 12.9993 0.0049936Z" fill="white"/>
</svg>
